<svg width="172" height="26" viewBox="0 0 172 26" fill="none" xmlns="http://www.w3.org/2000/svg">
<g clip-path="url(#clip0_1287_1897)">
<path d="M7.98674 7.03056L6.96094 10.8683L12.8324 7.00871L8.99239 21.5716L12.8924 21.5749L18.5652 0.0648804" fill="#3395FF"/>
<path d="M1.66797 15.4526L0.0527344 21.5749H8.04619L11.3171 9.12053L1.66797 15.4526ZM29.4343 10.0625C29.2389 10.8007 28.8625 11.3429 28.3011 11.6891C27.7409 12.0347 26.9549 12.2082 25.9401 12.2082H22.7162L23.8481 7.9183H27.0721C28.0855 7.9183 28.7818 8.09042 29.1595 8.44129C29.5372 8.79216 29.6285 9.32835 29.4343 10.0698V10.0625ZM32.7723 9.97718C33.1826 8.42805 33.0132 7.23642 32.263 6.40229C31.5139 5.57478 30.1997 5.15771 28.3239 5.15771H21.1289L16.7978 21.5822H20.2933L22.0388 14.9621H24.3314C24.8459 14.9621 25.251 15.0482 25.5468 15.2137C25.843 15.3858 26.017 15.6836 26.0703 16.114L26.6943 21.5822H30.4393L29.8323 16.4847C29.7085 15.3461 29.196 14.6774 28.2952 14.4789C29.4435 14.1412 30.4055 13.5785 31.1805 12.7973C31.9502 12.0219 32.5 11.0499 32.7723 9.98373V9.97718ZM41.2691 15.7035C40.9761 16.8157 40.5267 17.6565 39.9191 18.2456C39.3107 18.8348 38.5838 19.1261 37.7358 19.1261C36.8722 19.1261 36.2867 18.8415 35.9774 18.2655C35.6673 17.6896 35.6569 16.8554 35.9448 15.7632C36.2326 14.6708 36.6918 13.8168 37.3236 13.2012C37.9554 12.5854 38.6939 12.2776 39.5419 12.2776C40.3886 12.2776 40.9683 12.5756 41.2614 13.1668C41.561 13.7605 41.5675 14.6099 41.2744 15.7155L41.2691 15.7035ZM42.8011 9.89111L42.3634 11.5527C42.1745 10.9569 41.8078 10.4802 41.266 10.1228C40.7227 9.77196 40.0506 9.59319 39.2488 9.59319C38.2654 9.59319 37.321 9.8514 36.4157 10.3677C35.5103 10.8841 34.7158 11.6123 34.0384 12.5523C33.361 13.4925 32.8661 14.5583 32.5469 15.7565C32.2343 16.9613 32.1692 18.014 32.358 18.9275C32.5534 19.8478 32.9638 20.5495 33.5956 21.0394C34.2338 21.5359 35.048 21.7808 36.0444 21.7808C36.8363 21.7849 37.6192 21.6108 38.337 21.271C39.0467 20.9457 39.678 20.4667 40.1867 19.8676L39.7309 21.5994H43.111L46.1976 9.89703H42.8108L42.8011 9.89111ZM58.3444 9.89111H48.5143L47.8272 12.4995H53.547L45.9853 19.1394L45.3392 21.5888H55.4865L56.1736 18.9805H50.0448L57.7224 12.2412L58.3444 9.89111ZM66.997 15.6836C66.6929 16.8356 66.2415 17.7015 65.6455 18.2655C65.0496 18.8348 64.3279 19.1195 63.4806 19.1195C61.709 19.1195 61.1268 17.9742 61.7312 15.6836C62.0308 14.545 62.4841 13.6891 63.0899 13.1124C63.6956 12.5339 64.4295 12.2452 65.2925 12.2452C66.1392 12.2452 66.711 12.5318 67.0055 13.1091C67.2998 13.6851 67.2972 14.5437 66.997 15.6824V15.6836ZM68.9756 10.3313C68.1974 9.83875 67.2041 9.59256 65.9927 9.59256C64.7663 9.59256 63.6311 9.8375 62.5864 10.3274C61.546 10.8142 60.6317 11.5409 59.916 12.4498C59.1801 13.3699 58.6505 14.449 58.3256 15.6804C58.0064 16.9071 57.9674 17.9842 58.2149 18.9064C58.4623 19.8265 58.9834 20.5349 59.7649 21.0248C60.553 21.5187 61.556 21.7642 62.787 21.7642C63.9984 21.7642 65.1251 21.5167 66.1607 21.0241C67.1963 20.529 68.0821 19.8259 68.818 18.899C69.554 17.9762 70.0815 16.8998 70.4072 15.6685C70.7328 14.4371 70.7719 13.362 70.5244 12.4379C70.277 11.5176 69.7624 10.8093 68.9873 10.3161L68.9756 10.3313ZM81.043 13.0171L81.9092 9.83284C81.6161 9.6806 81.2319 9.60117 80.7499 9.60117C79.9749 9.60117 79.2324 9.79572 78.516 10.1903C77.8998 10.5253 77.3762 10.998 76.9333 11.5898L77.3827 9.87524L76.4012 9.87919H73.9913L70.8846 21.5769H74.3125L75.9244 15.4619C76.1589 14.5728 76.5809 13.8731 77.1899 13.3765C77.7956 12.8781 78.5511 12.6285 79.4629 12.6285C80.023 12.6285 80.5441 12.7589 81.0391 13.0191L81.043 13.0171ZM90.5807 15.7399C90.2878 16.8323 89.845 17.6664 89.2391 18.2423C88.6331 18.8209 87.9038 19.1095 87.0571 19.1095C86.2105 19.1095 85.6308 18.8183 85.3247 18.2358C85.012 17.6499 85.0056 16.8058 85.2986 15.6963C85.5917 14.5874 86.0411 13.7367 86.6599 13.1475C87.2786 12.5537 88.0081 12.2571 88.8545 12.2571C89.688 12.2571 90.2481 12.5617 90.548 13.1773C90.8479 13.793 90.8541 14.647 90.5666 15.7393L90.5807 15.7399ZM92.9631 10.3505C92.328 9.83418 91.5174 9.57597 90.5339 9.57597C89.6722 9.57597 88.851 9.77456 88.0719 10.1758C87.2935 10.5763 86.6618 11.1224 86.1766 11.8136L86.1883 11.7342L86.7634 9.8739H83.4157L82.5625 13.1111L82.5364 13.2237L79.0194 26.5592H82.4518L84.2233 19.8464C84.3992 20.4435 84.7574 20.9122 85.3045 21.2512C85.8515 21.5888 86.5269 21.7563 87.33 21.7563C88.3261 21.7563 89.277 21.5113 90.1793 21.0214C91.0852 20.5302 91.8667 19.8232 92.5309 18.9097C93.1951 17.9961 93.6881 16.9368 94.003 15.7386C94.3214 14.5384 94.3867 13.4679 94.2041 12.5312C94.0189 11.5931 93.6079 10.8669 92.9737 10.3532L92.9631 10.3505ZM104.349 15.6923C104.056 16.7979 103.606 17.6452 103.001 18.2278C102.395 18.8143 101.665 19.1063 100.819 19.1063C99.9525 19.1063 99.3659 18.8216 99.0598 18.2456C98.7476 17.6697 98.7405 16.8356 99.0272 15.7433C99.3139 14.6509 99.7716 13.7969 100.403 13.1813C101.035 12.5656 101.774 12.2585 102.622 12.2585C103.468 12.2585 104.042 12.5564 104.342 13.1455C104.641 13.7367 104.643 14.5861 104.351 15.6943L104.349 15.6923ZM105.879 9.8765L105.441 11.5382C105.252 10.9391 104.888 10.4624 104.347 10.1083C103.8 9.75475 103.129 9.57866 102.328 9.57866C101.344 9.57866 100.394 9.83678 99.4876 10.3532C98.5826 10.8695 97.7879 11.5938 97.1105 12.5312C96.4331 13.4686 95.9382 14.537 95.6189 15.7353C95.3032 16.9382 95.2414 17.9928 95.4302 18.9103C95.6207 19.8239 96.0317 20.5296 96.6677 21.0222C97.3019 21.512 98.1204 21.7596 99.1163 21.7596C99.9181 21.7596 100.683 21.5901 101.41 21.2499C102.117 20.923 102.747 20.4434 103.254 19.8444L102.799 21.5776H106.179L109.264 9.87982H105.884L105.879 9.8765ZM123.456 9.88053L123.458 9.87722H121.38C121.314 9.87722 121.255 9.88053 121.195 9.88179H120.117L119.563 10.663L119.426 10.8484L119.367 10.9411L114.988 17.1428L114.082 9.88053H110.495L112.312 20.9162L108.3 26.5632H111.876L112.846 25.1643C112.874 25.1233 112.898 25.0888 112.931 25.0452L114.064 23.41L114.097 23.3637L119.172 16.0485L123.451 9.89174L123.458 9.8878H123.456V9.88053Z" fill="white"/>
<path d="M137.212 16.3316C137.212 17.0919 137.087 17.79 136.838 18.4259C136.588 19.0619 136.238 19.6094 135.786 20.0684C135.335 20.5275 134.791 20.8837 134.156 21.1371C133.521 21.3906 132.816 21.5172 132.039 21.5172H128.151V11.1459H132.039C132.816 11.1459 133.521 11.275 134.156 11.5332C134.791 11.7867 135.335 12.1429 135.786 12.6019C136.238 13.0562 136.588 13.6013 136.838 14.2372C137.087 14.8732 137.212 15.5713 137.212 16.3316ZM135.264 16.3316C135.264 15.7625 135.189 15.2533 135.038 14.8039C134.893 14.3496 134.679 13.9671 134.396 13.6563C134.118 13.3407 133.78 13.0993 133.38 12.9319C132.985 12.7645 132.538 12.6808 132.039 12.6808H130.057V19.9823H132.039C132.538 19.9823 132.985 19.8987 133.38 19.7313C133.78 19.5639 134.118 19.3249 134.396 19.0141C134.679 18.6985 134.893 18.3159 135.038 17.8665C135.189 17.4122 135.264 16.9006 135.264 16.3316ZM141.72 14.0436C142.256 14.0436 142.743 14.1321 143.181 14.309C143.623 14.4859 143.999 14.7369 144.31 15.0621C144.625 15.3873 144.866 15.7841 145.036 16.2527C145.206 16.7213 145.291 17.2449 145.291 17.8235C145.291 18.4068 145.206 18.9328 145.036 19.4014C144.866 19.87 144.625 20.2692 144.31 20.5992C143.999 20.9291 143.623 21.1826 143.181 21.3595C142.743 21.5363 142.256 21.6248 141.72 21.6248C141.178 21.6248 140.687 21.5363 140.245 21.3595C139.802 21.1826 139.424 20.9291 139.109 20.5992C138.799 20.2692 138.556 19.87 138.382 19.4014C138.213 18.9328 138.128 18.4068 138.128 17.8235C138.128 17.2449 138.213 16.7213 138.382 16.2527C138.556 15.7841 138.799 15.3873 139.109 15.0621C139.424 14.7369 139.802 14.4859 140.245 14.309C140.687 14.1321 141.178 14.0436 141.72 14.0436ZM141.72 20.2621C142.322 20.2621 142.766 20.0565 143.054 19.6452C143.345 19.234 143.491 18.6315 143.491 17.8378C143.491 17.0441 143.345 16.4392 143.054 16.0232C142.766 15.6072 142.322 15.3992 141.72 15.3992C141.108 15.3992 140.654 15.6096 140.358 16.0303C140.066 16.4463 139.921 17.0488 139.921 17.8378C139.921 18.6268 140.066 19.2292 140.358 19.6452C140.654 20.0565 141.108 20.2621 141.72 20.2621ZM151.806 15.7148C151.754 15.7817 151.703 15.8343 151.651 15.8726C151.604 15.9108 151.534 15.9299 151.439 15.9299C151.35 15.9299 151.263 15.9037 151.178 15.851C151.094 15.7937 150.992 15.7315 150.875 15.6646C150.757 15.5928 150.616 15.5307 150.451 15.4781C150.292 15.4207 150.092 15.392 149.852 15.392C149.546 15.392 149.277 15.4494 149.047 15.5641C148.817 15.6741 148.624 15.8343 148.469 16.0447C148.318 16.2551 148.205 16.5109 148.13 16.8121C148.055 17.1086 148.017 17.4457 148.017 17.8235C148.017 18.2155 148.057 18.5646 148.137 18.8706C148.222 19.1766 148.342 19.4348 148.497 19.6452C148.652 19.8508 148.84 20.0086 149.061 20.1186C149.283 20.2238 149.531 20.2764 149.809 20.2764C150.087 20.2764 150.31 20.243 150.48 20.176C150.653 20.1043 150.8 20.0278 150.917 19.9465C151.034 19.8604 151.136 19.7839 151.221 19.717C151.31 19.6452 151.408 19.6094 151.517 19.6094C151.658 19.6094 151.764 19.6643 151.834 19.7743L152.335 20.4199C152.142 20.6494 151.933 20.843 151.707 21.0008C151.482 21.1539 151.246 21.2781 151.002 21.3738C150.762 21.4646 150.512 21.5292 150.254 21.5675C150 21.6057 149.746 21.6248 149.492 21.6248C149.045 21.6248 148.624 21.5412 148.229 21.3738C147.833 21.2017 147.488 20.953 147.191 20.6279C146.895 20.3027 146.659 19.9059 146.486 19.4372C146.316 18.9639 146.232 18.4259 146.232 17.8235C146.232 17.2831 146.307 16.7835 146.457 16.3244C146.613 15.8606 146.839 15.4613 147.135 15.1266C147.431 14.7871 147.798 14.5217 148.236 14.3305C148.673 14.1393 149.177 14.0436 149.746 14.0436C150.286 14.0436 150.759 14.1321 151.164 14.309C151.573 14.4859 151.94 14.7393 152.265 15.0692L151.806 15.7148ZM157.846 15.5928C157.798 15.6693 157.749 15.7244 157.697 15.7578C157.645 15.7865 157.579 15.8008 157.5 15.8008C157.415 15.8008 157.323 15.7769 157.225 15.7291C157.13 15.6813 157.02 15.6287 156.893 15.5713C156.766 15.5092 156.62 15.4541 156.456 15.4063C156.295 15.3586 156.104 15.3346 155.884 15.3346C155.54 15.3346 155.27 15.4088 155.072 15.557C154.879 15.7052 154.783 15.8988 154.783 16.1379C154.783 16.2957 154.833 16.4296 154.931 16.5396C155.035 16.6448 155.169 16.738 155.334 16.8193C155.503 16.9006 155.693 16.9747 155.905 17.0417C156.117 17.1038 156.33 17.1732 156.547 17.2497C156.768 17.3261 156.985 17.4146 157.196 17.515C157.408 17.6107 157.596 17.735 157.761 17.888C157.93 18.0362 158.064 18.2155 158.163 18.4259C158.266 18.6364 158.318 18.8897 158.318 19.1862C158.318 19.5401 158.255 19.8676 158.128 20.1688C158.005 20.4653 157.822 20.7235 157.577 20.9435C157.332 21.1586 157.029 21.3283 156.667 21.4527C156.309 21.5722 155.895 21.632 155.425 21.632C155.176 21.632 154.931 21.6081 154.691 21.5603C154.456 21.5172 154.227 21.4551 154.007 21.3738C153.79 21.2925 153.588 21.1969 153.4 21.0869C153.217 20.9769 153.054 20.8574 152.913 20.7283L153.315 20.0541C153.367 19.9728 153.428 19.9106 153.499 19.8676C153.569 19.8246 153.659 19.803 153.767 19.803C153.875 19.803 153.976 19.8341 154.07 19.8963C154.169 19.9584 154.282 20.0254 154.409 20.0971C154.536 20.1688 154.684 20.2358 154.854 20.2979C155.027 20.3601 155.246 20.3912 155.51 20.3912C155.716 20.3912 155.893 20.3672 156.039 20.3195C156.189 20.2668 156.312 20.1999 156.406 20.1186C156.505 20.0373 156.575 19.9441 156.618 19.8389C156.665 19.7289 156.688 19.6166 156.688 19.5018C156.688 19.3297 156.636 19.1886 156.533 19.0786C156.434 18.9686 156.3 18.873 156.131 18.7917C155.966 18.7104 155.775 18.6387 155.559 18.5766C155.348 18.5096 155.129 18.4379 154.903 18.3614C154.682 18.2849 154.463 18.1964 154.247 18.096C154.035 17.9908 153.845 17.8593 153.675 17.7015C153.51 17.5437 153.376 17.3501 153.273 17.1206C153.174 16.891 153.125 16.6137 153.125 16.2886C153.125 15.9873 153.183 15.7004 153.301 15.4279C153.419 15.1553 153.591 14.9186 153.816 14.7178C154.047 14.5122 154.332 14.3496 154.67 14.2301C155.013 14.1057 155.409 14.0436 155.856 14.0436C156.354 14.0436 156.808 14.1272 157.218 14.2946C157.627 14.462 157.967 14.6819 158.241 14.9545L157.846 15.5928Z" fill="white"/>
</g>
<defs>
<clipPath id="clip0_1287_1897">
<rect width="172" height="26" fill="white"/>
</clipPath>
</defs>
</svg>
